<svg width="106" height="106" viewBox="0 0 106 106" fill="none" xmlns="http://www.w3.org/2000/svg">
<path d="M52.9997 8.83301C28.6638 8.83301 8.83301 28.6638 8.83301 52.9997C8.83301 77.3355 28.6638 97.1664 52.9997 97.1664C77.3355 97.1664 97.1664 77.3355 97.1664 52.9997C97.1664 28.6638 77.3355 8.83301 52.9997 8.83301ZM74.1114 42.8413L49.0688 67.8838C48.4505 68.5022 47.6113 68.8555 46.728 68.8555C45.8447 68.8555 45.0055 68.5022 44.3872 67.8838L31.888 55.3847C30.6072 54.1038 30.6072 51.9838 31.888 50.703C33.1688 49.4222 35.2888 49.4222 36.5697 50.703L46.728 60.8613L69.4297 38.1597C70.7105 36.8788 72.8305 36.8788 74.1114 38.1597C75.3922 39.4405 75.3922 41.5163 74.1114 42.8413Z" fill="#41AF32"/>
</svg>
