<svg width="20" height="20" viewBox="0 0 20 20" fill="none" xmlns="http://www.w3.org/2000/svg">
<path d="M9.99992 10C12.3011 10 14.1666 8.13454 14.1666 5.83335C14.1666 3.53217 12.3011 1.66669 9.99992 1.66669C7.69873 1.66669 5.83325 3.53217 5.83325 5.83335C5.83325 8.13454 7.69873 10 9.99992 10Z" stroke="#383E50" stroke-linecap="round" stroke-linejoin="round"/>
<path d="M16.0083 13.1167L13.0583 16.0667C12.9416 16.1834 12.8333 16.4 12.8083 16.5584L12.6499 17.6833C12.5916 18.0917 12.875 18.375 13.2833 18.3167L14.4083 18.1583C14.5666 18.1333 14.7916 18.025 14.9 17.9084L17.8499 14.9584C18.3583 14.45 18.5999 13.8583 17.8499 13.1083C17.1083 12.3667 16.5166 12.6083 16.0083 13.1167Z" stroke="#383E50" stroke-miterlimit="10" stroke-linecap="round" stroke-linejoin="round"/>
<path d="M15.5833 13.5417C15.8333 14.4417 16.5332 15.1417 17.4332 15.3917" stroke="#383E50" stroke-miterlimit="10" stroke-linecap="round" stroke-linejoin="round"/>
<path d="M2.8418 18.3333C2.8418 15.1083 6.05015 12.5 10.0002 12.5C10.8668 12.5 11.7001 12.625 12.4751 12.8583" stroke="#383E50" stroke-linecap="round" stroke-linejoin="round"/>
</svg>
